<?xml version="1.0" standalone="no"?><!DOCTYPE svg PUBLIC "-//W3C//DTD SVG 1.1//EN" "http://www.w3.org/Graphics/SVG/1.1/DTD/svg11.dtd"><svg t="1526116275411" class="icon" style="" viewBox="0 0 1024 1024" version="1.1" xmlns="http://www.w3.org/2000/svg" p-id="6189" xmlns:xlink="http://www.w3.org/1999/xlink" width="64" height="64"><defs><style type="text/css"></style></defs><path d="M780.8 230.4c0-56.32-46.08-102.4-102.4-102.4h-307.2c-56.32 0-102.4 46.08-102.4 102.4-174.08 0-153.6 0-153.6 102.4 0 84.48 69.12 153.6 153.6 153.6 5.12 0 12.8 0 17.92-2.56 33.28 99.84 115.2 192 212.48 204.8V844.8h-76.8c-15.36 0-25.6 10.24-25.6 25.6s10.24 25.6 25.6 25.6h204.8c15.36 0 25.6-10.24 25.6-25.6s-10.24-25.6-25.6-25.6h-76.8v-156.16c97.28-12.8 176.64-104.96 212.48-204.8 5.12 0 12.8 2.56 17.92 2.56 84.48 0 153.6-69.12 153.6-153.6 0-102.4 20.48-102.4-153.6-102.4z m-512 204.8c-56.32 0-102.4-46.08-102.4-102.4s0-51.2 102.4-51.2v153.6z m460.8-51.2c0 112.64-92.16 256-204.8 256s-204.8-143.36-204.8-256V230.4c0-25.6 25.6-51.2 51.2-51.2h307.2c25.6 0 51.2 25.6 51.2 51.2v153.6z m51.2 51.2v-153.6c102.4 0 102.4-5.12 102.4 51.2s-46.08 102.4-102.4 102.4z" p-id="6190" fill="#57b197"></path></svg>